<svg width="45" height="45" viewBox="0 0 45 45" fill="none" xmlns="http://www.w3.org/2000/svg">
<path fill-rule="evenodd" clip-rule="evenodd" d="M35.0871 7.97939L29.6231 6.49084L29.3635 7.41068L34.0363 10.1748L35.399 9.2386L38.3437 14.1466L38.9139 13.1192L42.0134 16.4925L43.6133 10.3022L35.0871 7.97939Z" fill="#00A0A8"/>
<path fill-rule="evenodd" clip-rule="evenodd" d="M1.85449 8.05925L1.8548 8.05956C2.01027 8.59861 2.1676 9.1327 2.3277 9.65939C2.45504 9.52864 2.58764 9.40903 2.72209 9.29405C2.75022 9.26994 2.77804 9.24552 2.80678 9.22203C2.9366 9.11509 3.06858 9.01402 3.20241 8.92036C3.23085 8.90058 3.25928 8.88235 3.28772 8.86287C3.40672 8.7822 3.52664 8.70617 3.64688 8.63508C3.67346 8.61962 3.69973 8.60262 3.726 8.58748C3.85767 8.51237 3.98903 8.44344 4.12009 8.37854C4.16243 8.35752 4.20447 8.33743 4.24681 8.31734C4.37261 8.25799 4.49779 8.20143 4.6208 8.15074H4.62111L3.55941 7.72729L1.85449 8.05925Z" fill="#00A0A8"/>
<path fill-rule="evenodd" clip-rule="evenodd" d="M29.7004 5.25447L29.672 7.18965C29.672 7.18965 40.9817 10.9132 43.2155 12.3096L44.1576 9.3962L29.7004 5.25447Z" fill="#00777C"/>
<path fill-rule="evenodd" clip-rule="evenodd" d="M3.75024 6.49072C2.75314 6.71883 2.007 6.92313 1.54492 7.05882C1.63888 7.40067 1.73563 7.73603 1.83206 8.07107L3.53697 7.73912L4.59868 8.16225C5.06942 7.96877 5.51543 7.83586 5.89128 7.74684C5.30185 7.23778 4.41725 6.7655 3.82844 6.52287L3.75024 6.49072Z" fill="#00777C"/>
<path fill-rule="evenodd" clip-rule="evenodd" d="M34.0642 32.8406C34.2951 32.4818 34.543 32.1167 34.7866 31.7465C35.0675 31.2022 35.3605 30.6643 35.6755 30.1435C36.0235 29.5674 36.3332 28.9168 36.7558 28.3867C36.7462 28.3595 36.7384 28.3311 36.7282 28.3042C36.5357 28.1388 36.3502 27.9642 36.141 27.8177C35.7299 27.9089 35.3711 28.2034 34.9665 28.3215C34.9266 28.3329 34.8898 28.3351 34.8552 28.3317C34.1526 29.1984 33.6337 30.295 33.1036 31.2668C32.8325 31.7641 32.5247 32.2187 32.0703 32.4981C32.0404 32.5374 32.0104 32.577 31.9801 32.6162C31.9501 32.6131 31.9189 32.6159 31.8883 32.615C31.6747 32.798 31.4231 32.8845 31.1724 33.0384C30.9799 33.1565 30.8006 33.2894 30.6272 33.43C30.6152 33.4739 30.6062 33.5191 30.5994 33.5642C30.6241 33.5861 30.6485 33.6096 30.6677 33.6442C30.7295 33.7561 30.7978 33.8628 30.8705 33.966C31.2679 34.2126 31.6052 34.5412 31.9742 34.8293C32.0094 34.8209 32.0456 34.8138 32.0796 34.8039C32.1581 34.8515 32.2413 34.883 32.3256 34.9041C32.7383 34.5727 33.0866 34.1694 33.5073 33.8529C33.4958 33.8118 33.4829 33.7706 33.464 33.7292C33.6779 33.4464 33.872 33.1395 34.0642 32.8406Z" fill="#00777C"/>
<path fill-rule="evenodd" clip-rule="evenodd" d="M36.6601 17.7101C36.8292 17.6103 36.9695 17.4619 37.0832 17.3052C37.0455 16.7572 36.8261 16.2256 36.1634 16.0723L36.1631 16.0732C36.6156 16.8094 36.6601 17.7101 36.6601 17.7101Z" fill="#EEA52D"/>
<path fill-rule="evenodd" clip-rule="evenodd" d="M35.921 19.4956C34.4986 20.3088 32.4654 19.9731 32.4654 19.9731C34.5147 19.899 35.2549 18.5452 35.2549 18.5452C35.2549 18.5452 33.2938 19.784 30.9092 18.7646C30.9092 18.7646 31.9808 22.5648 35.921 19.4956Z" fill="#EEA52D"/>
<path fill-rule="evenodd" clip-rule="evenodd" d="M32.0662 17.3005C32.0613 17.0988 32.0724 16.8941 32.0959 16.6907C31.8576 16.7691 31.5262 16.8427 31.2178 16.7972C31.6523 17.1281 32.0662 17.3005 32.0662 17.3005Z" fill="#EEA52D"/>
<path fill-rule="evenodd" clip-rule="evenodd" d="M32.4151 23.3526C32.4151 23.3526 31.5806 22.6584 30.6128 22.5632L30.2419 22.7144C30.2382 22.7162 29.9727 22.8296 29.672 23.0596C30.4045 22.9876 31.2279 22.9635 31.7351 23.1298L32.4151 23.3526Z" fill="#EEA52D"/>
<path fill-rule="evenodd" clip-rule="evenodd" d="M28.3461 22.7901C28.5393 22.5528 28.7513 22.3537 28.9547 22.1939C28.3869 21.6518 28.0302 20.9483 27.8179 20.4003L27.8173 20.3997C27.8173 20.3997 27.7984 21.9018 28.3461 22.7901Z" fill="#EEA52D"/>
<path fill-rule="evenodd" clip-rule="evenodd" d="M37.8974 22.8519C37.7499 23.2732 37.3861 23.5229 37.0724 23.6666C37.0724 23.6666 37.8757 23.8796 38.2052 23.4475C38.2052 23.4475 40.4807 23.4082 41.3817 23.0024C40.2989 23.6864 36.2184 26.1931 33.2119 27.087C33.2119 27.087 33.4818 24.8365 34.4205 24.4375C34.4205 24.4375 32.8339 24.0783 31.6507 25.3005C32.2686 25.052 33.0351 24.843 33.6623 24.9765C33.6623 24.9765 30.7337 26.0763 30.2979 27.4418L30.2456 26.4082C30.2104 25.7122 30.4605 24.8841 30.6901 24.2845C30.02 24.2938 29.1054 24.4125 28.4749 24.5324L28.1695 24.5905C28.1037 24.9153 28.0539 25.26 28.0459 25.5901C28.0459 25.5901 29.0646 25.0028 29.7255 25.1218C29.7255 25.1218 29.264 26.743 29.5372 28.3592C29.5372 28.3592 29.2655 27.8615 27.5087 27.6467C27.5087 27.6467 27.5093 27.6473 27.5093 27.6477C29.6485 29.2218 30.2466 31.9269 30.3956 32.8993C30.5677 32.9958 30.7943 33.1376 31.0517 33.3348C31.7419 32.5816 33.7303 30.2304 33.9642 27.9122L34.0023 27.5379L34.3518 27.3995C37.6782 26.0824 41.4871 24.2922 42.0116 23.6274C42.0147 23.1149 41.9924 22.7694 41.9729 22.5632C40.362 23.0018 37.8974 22.8519 37.8974 22.8519Z" fill="#EEA52D"/>
<path fill-rule="evenodd" clip-rule="evenodd" d="M43.0894 20.4899C42.5575 20.4092 41.8657 20.2198 41.4352 19.7815C41.4806 20.0844 41.6358 20.455 42.0914 20.6862C42.0914 20.6862 41.6395 21.8857 38.0176 22.295C38.0257 22.4167 38.0213 22.4943 38.0213 22.4943C40.8896 22.5249 42.5581 21.5513 42.5581 21.5513C42.8539 21.3285 43.2273 20.9436 43.0421 20.5103L43.0894 20.4899Z" fill="#EEA52D"/>
<path fill-rule="evenodd" clip-rule="evenodd" d="M12.7288 28.5159C14.0597 27.3642 14.7959 25.6315 15.1743 24.4177C14.421 25.3165 12.9674 26.3523 10.1992 27.2802C11.3849 29.2787 12.5977 31.0875 13.813 32.7219C13.2833 29.9432 15.2562 27.941 15.2562 27.941C14.2535 27.7039 12.7288 28.5159 12.7288 28.5159Z" fill="#EEA52D"/>
<path fill-rule="evenodd" clip-rule="evenodd" d="M13.5424 24.2521C13.4738 24.474 13.3916 24.7064 13.2911 24.9426C14.0129 24.5265 14.7744 23.9445 15.2408 23.1814C14.7679 23.8741 14.0218 24.1457 13.5424 24.2521Z" fill="#EEA52D"/>
<path fill-rule="evenodd" clip-rule="evenodd" d="M12.5818 23.1814C10.3122 23.9816 9.51571 25.3246 9.27246 25.8853C9.46842 26.2327 9.665 26.5742 9.8625 26.9105L11.2772 25.6368C12.0378 24.9521 12.4069 23.9217 12.5818 23.1814Z" fill="#EEA52D"/>
<path fill-rule="evenodd" clip-rule="evenodd" d="M31.8472 38.4053C31.6385 38.7036 31.3313 39.582 30.7573 39.6108C30.1837 39.6398 29.6861 38.6424 29.4805 39.0043C29.4805 39.0043 27.6452 30.575 20.0908 36.3039C21.9769 36.1595 26.6002 36.2816 28.6658 40.5995L28.8256 40.9336L27.6124 42.586C27.9165 42.7634 28.3202 42.9232 28.6942 42.8821C29.0589 42.8413 29.377 42.6169 29.6672 42.1959L29.8406 41.945L30.145 41.9295C30.2081 41.9258 31.7501 41.8229 31.7795 40.6997L31.7912 40.2459L32.2283 40.1214C32.2246 40.1217 32.4465 40.0354 32.5908 39.7257C32.6941 39.5035 32.7698 39.1465 32.6953 38.5905C32.3306 38.4047 31.9489 38.2601 31.8472 38.4053Z" fill="#EEA52D"/>
<path fill-rule="evenodd" clip-rule="evenodd" d="M24.7045 21.0178C24.1787 21.2431 23.9543 21.4932 23.9413 21.5083L23.0515 22.5252L22.8561 21.1962C22.8555 21.1918 22.8555 21.1878 22.8549 21.1838C22.3205 22.1985 21.6059 23.3122 20.708 24.2005L22.1592 24.1272C22.403 23.8667 22.6599 23.5406 22.8339 23.1777L23.3105 23.8886C23.3105 23.8886 23.6496 22.881 24.0511 22.605C24.0511 22.605 24.5193 24.9141 25.1857 25.4557C25.1857 25.4557 24.8188 24.0265 24.7777 22.7178C24.6615 22.0999 24.6621 21.4984 24.7045 21.0178Z" fill="#EEA52D"/>
<path fill-rule="evenodd" clip-rule="evenodd" d="M19.6818 25.6541L17.3096 25.7737L18.587 26.6209C18.9638 26.2639 19.3372 25.9362 19.6818 25.6541Z" fill="#EEA52D"/>
<path fill-rule="evenodd" clip-rule="evenodd" d="M22.7031 18.074C22.8196 17.3322 23.0202 16.668 23.278 16.0724C23.1543 16.0782 23.014 16.0934 22.8647 16.1156C22.678 16.6961 22.2336 17.7575 21.3273 18.5475C21.4414 19.1465 21.556 20.0491 21.45 20.9303C22.211 19.5499 22.6388 18.2718 22.7031 18.074Z" fill="#EEA52D"/>
<path fill-rule="evenodd" clip-rule="evenodd" d="M21.3948 16.4882C21.2613 16.5203 21.1312 16.5386 21.0044 16.5451C20.2033 16.5856 19.5561 16.1525 19.1836 15.7634C19.1573 16.032 19.153 16.2579 19.1898 16.3853C19.3205 16.8372 20.0701 17.5913 20.7729 17.8358C21.0579 17.4352 21.3219 16.9753 21.511 16.4604C21.5018 16.4625 21.4909 16.465 21.482 16.4672L21.3948 16.4882Z" fill="#EEA52D"/>
<path fill-rule="evenodd" clip-rule="evenodd" d="M21.1348 25.9631C20.3407 26.5455 18.9789 27.6319 17.9268 28.9331C18.4704 28.8661 19.0843 28.8216 19.6329 28.8577C19.8329 28.2253 20.2928 27.0218 21.1348 25.9631Z" fill="#EEA52D"/>
<path fill-rule="evenodd" clip-rule="evenodd" d="M25.9629 13.9649C25.9941 13.9368 28.6121 11.5831 30.1 11.508C30.1 11.508 29.8215 11.0747 29.3434 11.0988C29.3434 11.0988 30.3247 9.69029 30.5197 8.64311C30.1896 8.51453 29.8524 8.40851 29.514 8.34546C29.1122 9.58056 28.5895 10.7594 28.1367 11.6802C28.4492 11.5528 28.6464 11.4944 28.6575 11.4913C28.6575 11.4913 27.2434 12.3784 25.9629 13.9649Z" fill="#EEA52D"/>
<path fill-rule="evenodd" clip-rule="evenodd" d="M16.9898 30.2823L16.6903 30.3503C17.1088 30.4668 17.7684 30.6556 18.292 30.8269C18.5615 30.5042 18.8248 30.2204 19.0659 29.9812C18.3448 30.0248 17.5329 30.1589 16.9898 30.2823Z" fill="#EEA52D"/>
<path fill-rule="evenodd" clip-rule="evenodd" d="M19.0563 12.5913C19.7292 9.26925 22.4761 8.21465 22.5101 8.20198L22.6392 8.16984C23.7455 8.01962 24.6903 8.26658 25.4482 8.90855C26.1959 9.54125 26.6212 10.4561 26.8626 11.2721C27.0734 10.8505 27.3046 10.3628 27.533 9.83828C27.2125 9.04115 26.4935 7.55723 25.2761 6.58485C25.2761 6.58485 25.4136 7.40887 25.3388 7.82799C25.3388 7.82799 22.5008 5.41496 20.131 5.94999C20.131 5.94999 20.9934 6.57743 21.3253 7.45554C21.3253 7.45554 16.7775 5.9914 13.1479 8.15593C13.1479 8.15593 16.4495 8.35745 17.8957 10.4172C17.8957 10.4172 14.251 11.4532 12.6719 14.1389V14.1392C15.0243 13.1137 17.9214 12.7149 19.0563 12.5913Z" fill="#EEA52D"/>
<path fill-rule="evenodd" clip-rule="evenodd" d="M10.1409 13.2906C7.88829 14.2701 5.7451 16.1778 4.9455 16.9354C5.34545 17.9356 5.75499 18.9039 6.17256 19.8417C6.37192 18.6013 7.14804 15.7599 10.1409 13.2906Z" fill="#EEA52D"/>
<path fill-rule="evenodd" clip-rule="evenodd" d="M9.25631 8.42693C9.25631 8.42693 8.44496 6.26395 5.74046 5.87265C6.48412 6.32639 7.30382 6.96558 7.62341 7.71449L7.96433 8.51255L7.09827 8.57375C7.07046 8.57591 4.21884 8.81669 2.78221 10.8539C3.22791 12.2417 3.69247 13.5769 4.17217 14.8646C4.09922 13.083 4.64816 9.83512 9.25631 8.42693Z" fill="#EEA52D"/>
<path fill-rule="evenodd" clip-rule="evenodd" d="M18.3885 20.9878C15.9928 17.2102 12.9817 19.5991 12.9817 19.5991C16.3618 18.8212 18.3885 20.9878 18.3885 20.9878Z" fill="#EEA52D"/>
<path fill-rule="evenodd" clip-rule="evenodd" d="M25.6549 18.9135C25.6549 18.9135 26.7629 16.1731 29.6387 15.5327C29.6387 15.5327 25.5986 14.6342 25.6549 18.9135Z" fill="#EEA52D"/>
<path fill-rule="evenodd" clip-rule="evenodd" d="M27.8323 40.1694C27.8882 39.5853 27.3047 39.0583 26.7273 39.1974C26.591 39.2304 26.4661 39.2817 26.3474 39.3423C23.7715 37.0925 19.9957 37.7867 19.801 37.8247L18.9937 37.9817L19.0666 37.1627C19.1315 36.4403 19.2447 35.7597 19.3856 35.1292C18.9977 34.2764 18.7807 33.0537 19.4079 31.5268C18.425 32.6605 17.2813 34.4328 16.9998 36.754C18.9826 38.968 20.9119 40.7499 22.6743 42.167C22.6869 42.3364 22.7481 42.5101 22.8755 42.6752C23.2705 43.187 23.821 43.4504 24.4574 43.5097C24.8759 43.549 25.2564 43.2705 25.3976 42.8872C25.4013 42.8776 25.4056 42.8684 25.409 42.8585C25.6755 42.8613 25.9444 42.7484 26.14 42.4625C26.3054 42.2211 26.4704 41.9797 26.6358 41.7383C26.6766 41.6787 26.8169 41.4568 26.9316 41.2732C27.4592 41.1335 27.7813 40.7007 27.8323 40.1694Z" fill="#EEA52D"/>
<path fill-rule="evenodd" clip-rule="evenodd" d="M16.4251 27.8177C16.4105 27.8323 16.3965 27.8476 16.3818 27.8622C16.3959 27.8469 16.4117 27.8335 16.4251 27.8177Z" fill="#58B893"/>
<path fill-rule="evenodd" clip-rule="evenodd" d="M12.7225 23.3668C12.7377 23.3058 12.756 23.2405 12.7701 23.1814C12.7359 23.1936 12.7054 23.207 12.6719 23.2192C12.6883 23.2686 12.7024 23.3192 12.7225 23.3668Z" fill="#58B893"/>
<path fill-rule="evenodd" clip-rule="evenodd" d="M15.4541 29.2333C15.6255 29.212 15.8023 29.1931 15.9798 29.1748C15.9609 29.0278 15.9182 28.8845 15.8651 28.7449C15.7267 28.9065 15.5877 29.0681 15.4541 29.2333Z" fill="#58B893"/>
<path fill-rule="evenodd" clip-rule="evenodd" d="M12.9539 19.8435C12.9539 19.8435 15.965 17.4546 18.3611 21.2323C18.3611 21.2323 16.3341 19.0659 12.9539 19.8435ZM18.6012 26.6807L17.3213 25.8319L15.4464 25.9265L18.4627 24.5783C19.8443 23.9607 20.9261 22.4886 21.6806 21.1184C21.7854 20.2384 21.6707 19.3374 21.5567 18.74C20.9901 19.2333 20.2434 19.6209 19.2635 19.717C19.2635 19.717 20.2205 19.0741 21.0124 17.9623C20.3104 17.7163 19.5631 16.9643 19.4326 16.5127C19.3955 16.3854 19.3999 16.1585 19.4264 15.8893C19.355 15.8154 19.2926 15.7428 19.2425 15.6754L19.1439 15.5425L19.1248 15.3784C19.1072 15.2272 19.0997 15.0847 19.0895 14.9398C19.0741 14.9333 19.0558 14.9262 19.0438 14.9203C19.0571 14.8987 19.0707 14.8777 19.0827 14.8554C19.0648 14.5658 19.0562 14.2836 19.0645 14.0169C18.0696 14.1386 16.2005 14.4242 14.4526 15.0035C15.2105 15.3258 16.0877 15.8086 16.772 16.4976L17.9302 17.6634C17.9302 17.6634 13.8459 16.3798 10.3579 18.6803C11.385 17.164 13.1752 16.6067 14.5379 16.4086C13.5235 15.8837 12.5385 15.6674 12.524 15.6643L10.7702 15.2887L12.3824 14.504C12.5255 14.4344 12.6748 14.3714 12.8228 14.3068V14.3046C14.402 11.619 18.0467 10.5829 18.0467 10.5829C16.6005 8.52318 13.2985 8.32197 13.2985 8.32197C16.9284 6.15714 21.4763 7.62127 21.4763 7.62127C21.1443 6.74347 20.2817 6.11572 20.2817 6.11572C22.6514 5.58069 25.4898 7.99403 25.4898 7.99403C25.5642 7.5746 25.427 6.75089 25.427 6.75089C26.6436 7.72234 27.3622 9.20472 27.683 10.0025C28.2381 8.72749 28.7747 7.22966 28.9478 5.89565C28.6205 6.17383 28.2313 6.42604 27.7931 6.57193L27.2574 6.75027L27.0312 6.23286C27.0179 6.20257 25.8894 3.68291 23.8025 2.38383C23.9839 2.97202 24.1044 3.71042 24.0429 4.58668L23.9468 5.95314L22.9852 4.97674C22.9531 4.94398 20.1002 2.0834 16.8029 1.54528C16.8008 1.54806 16.7983 1.55053 16.7964 1.55332C17.2437 2.21105 17.7391 3.11481 17.9994 4.17096L18.3709 5.67929L17.0644 4.83858C17.0388 4.8222 14.6229 3.31603 10.7007 3.25545C11.0737 3.73453 11.4409 4.3799 11.6517 5.21319L11.8715 6.08203L10.981 5.97849C10.947 5.97478 8.181 5.66384 5.90181 6.12005C5.90428 6.12159 5.90675 6.12314 5.90891 6.12468C8.60784 6.51877 9.41796 8.67773 9.41796 8.67773C4.81599 10.0838 4.26242 13.3248 4.33351 15.1079C4.41294 15.3218 4.49145 15.5391 4.57212 15.7499C5.58437 14.826 7.52327 13.2105 9.63802 12.2631C9.12031 12.0826 8.4363 11.9506 7.61228 12.0418L5.15444 12.3132C11.9382 8.30682 14.6032 10.093 14.6032 10.093C12.7882 9.85039 10.9649 10.4169 9.67728 10.9838C10.8166 11.2988 11.4891 11.8647 11.5315 11.9009L12.404 12.6498L11.2981 12.9644C10.9529 13.0627 10.6058 13.1913 10.2614 13.3409C7.26178 15.8108 6.4835 18.6553 6.28353 19.8981C6.28847 19.9096 6.29342 19.9216 6.29867 19.9331C6.74653 18.7932 7.61599 17.3154 9.29618 16.1072C9.29618 16.1072 7.13475 18.9947 7.07076 21.6098C7.60919 22.7442 8.15936 23.8285 8.71819 24.8691C9.37778 23.8977 10.7164 22.6032 13.3483 21.9628L14.1633 21.7644L14.1111 22.6017C14.1077 22.6576 14.0583 23.3667 13.785 24.2473C14.2592 24.1425 14.9945 23.8748 15.4686 23.1979C15.6448 22.9151 15.7823 22.6082 15.8596 22.2741C15.8596 22.2741 16.224 23.2814 15.1441 24.5718C14.7667 25.7859 14.0301 27.5229 12.6964 28.6771C12.6964 28.6771 14.2214 27.8651 15.2241 28.1019C15.2241 28.1019 13.3084 30.0469 13.76 32.7629C13.8212 32.8782 13.8845 32.9922 13.9507 33.1038C14.6109 33.9831 15.2714 34.8152 15.9285 35.5941C16.3835 33.5946 17.3639 32.0381 18.2726 30.9492C17.7466 30.7773 17.0839 30.5875 16.6663 30.471L15.5997 30.713L16.2982 29.4921C16.899 28.4415 17.7589 27.4794 18.6012 26.6807Z" fill="#FED81C"/>
<path fill-rule="evenodd" clip-rule="evenodd" d="M35.8691 19.5865C31.9843 22.5599 30.9253 18.8024 30.9253 18.8024C33.0963 19.7306 34.9113 18.7894 35.2198 18.6129C31.528 19.9429 30.2694 15.9149 30.2694 15.9149C30.351 16.2333 30.7822 16.4799 31.2044 16.6505C31.524 16.6802 31.8742 16.64 32.1221 16.598C32.3076 15.807 33.2738 15.0569 34.7286 15.3174C35.3344 15.4262 35.7316 15.7968 35.9937 16.2221L35.9949 16.211C36.6629 16.3655 36.8799 16.9043 36.9151 17.4572C37.1645 17.1129 37.2835 16.7287 37.2835 16.7287C37.3725 18.2779 36.7201 19.1285 35.8691 19.5865ZM25.5233 18.7662C25.4671 14.4869 29.5071 15.3855 29.5071 15.3855C26.6314 16.0259 25.5233 18.7662 25.5233 18.7662ZM33.1434 14.3554C33.1434 14.3554 30.9168 12.2848 27.9632 14.6169C27.9632 14.6169 29.9605 10.6659 33.1434 14.3554ZM38.064 22.221L38.0643 22.2207C41.6862 21.8112 42.1381 20.6116 42.1381 20.6116C41.6887 20.3835 41.5313 20.0197 41.4834 19.719C41.209 19.4399 41.0393 19.061 41.0878 18.5411C41.1644 17.7232 41.3113 17.2355 41.4575 16.9412C40.8214 16.3605 39.9046 15.4366 39.2364 14.3972C39.2271 14.5356 39.2277 14.6602 39.2407 14.7622L39.5588 17.2479L38.1209 15.1952C37.8405 14.7947 35.9023 11.9931 34.9441 9.70371C34.8817 9.94882 34.8455 10.1707 34.8542 10.3373L34.9321 11.8852L33.8098 10.8158C33.7912 10.7979 32.247 9.34889 30.4639 8.65437C30.2639 9.70001 29.2903 11.098 29.2903 11.098C29.7685 11.0739 30.047 11.5072 30.047 11.5072C28.6555 11.5774 26.2768 13.6399 25.9479 13.9305C25.0018 15.0904 24.1196 16.6315 23.9231 18.4823L23.9904 18.5034C23.9821 18.5303 23.9503 18.6298 23.8968 18.7843C23.8696 19.2106 23.8764 19.6513 23.9299 20.1078C24.2804 19.9332 24.7326 19.7669 25.301 19.66L26.2672 19.4779C26.2672 19.4779 24.672 22.4151 25.3649 24.4322C25.0175 23.934 24.8253 23.3776 24.723 22.8336C24.7659 24.1395 25.131 25.561 25.131 25.561C24.4646 25.0192 23.9963 22.71 23.9963 22.71C23.5948 22.986 23.2558 23.9936 23.2558 23.9936L22.7791 23.2827C22.602 23.6518 22.3393 23.9828 22.0917 24.2455L23.8619 24.1562L21.91 25.4108C21.901 25.4167 21.6343 25.5907 21.2297 25.8883C20.3967 26.9482 19.9433 28.1437 19.7476 28.7659C20.0784 28.7872 20.3868 28.8367 20.6403 28.9294L21.7601 29.339L20.78 30.018C20.7648 30.0288 20.0558 30.5348 19.2386 31.4806C18.6232 32.9995 18.8436 34.2151 19.2308 35.0629C19.8329 32.3717 20.941 30.6019 20.9985 30.5113C19.8926 33.6291 20.211 36.298 20.2289 36.4386L20.2298 36.4393C27.7842 30.7104 29.6195 39.1397 29.6195 39.1397C29.825 38.7778 30.3227 39.7752 30.8963 39.7465C31.4703 39.7174 31.7775 38.839 31.9862 38.5407C32.0876 38.3958 32.4687 38.5398 32.8331 38.7256C32.787 38.3883 32.6862 37.9785 32.5027 37.4806C31.4753 34.6948 29.6884 33.9366 29.6133 33.9054L29.2588 33.7604C29.4851 28.1103 26.3182 26.8626 24.8596 26.5866C25.9646 26.7593 26.8507 27.1695 27.5647 27.7045C27.5421 27.6786 27.5267 27.6609 27.5267 27.6609C29.2835 27.8757 29.5552 28.3734 29.5552 28.3734C29.282 26.7575 29.7434 25.1363 29.7434 25.1363C29.0826 25.0173 28.0639 25.6046 28.0639 25.6046C28.0716 25.2788 28.1201 24.9388 28.1847 24.618L27.4596 24.7562L27.791 23.7572C27.9186 23.373 28.117 23.0482 28.3402 22.7749C27.8052 21.9157 27.8064 20.4766 27.807 20.3863C27.6256 19.9177 27.5499 19.5632 27.5421 19.5255C27.5421 19.5255 28.6583 21.694 31.6616 22.2346L30.7035 22.625C31.6607 22.7298 32.4807 23.4116 32.4807 23.4116L32.4736 23.4218L32.4813 23.4243L32.162 24.065C32.0474 24.2944 31.8298 24.7905 31.6749 25.3088C32.8578 24.0944 34.4385 24.4517 34.4385 24.4517C33.4998 24.8507 33.2299 27.1012 33.2299 27.1012C36.2364 26.2073 40.3169 23.7006 41.3997 23.0169C40.4987 23.4228 38.2232 23.4617 38.2232 23.4617C37.9218 23.857 37.2258 23.713 37.1089 23.6855C36.8159 23.8227 36.5616 23.8669 36.5616 23.8669C37.6925 23.0914 37.2891 20.8221 37.2891 20.8221C37.9095 21.168 38.039 21.8696 38.064 22.221Z" fill="#FED81C"/>
<path fill-rule="evenodd" clip-rule="evenodd" d="M36.7904 18.8601C36.7904 18.8601 36.7922 18.8546 36.7922 18.854C36.7886 18.8589 36.7849 18.8638 36.7812 18.8686C36.7843 18.8656 36.7873 18.8632 36.7904 18.8601Z" fill="#41886D"/>
<path fill-rule="evenodd" clip-rule="evenodd" d="M30.7575 24.2581C30.5281 24.8578 30.2781 25.6858 30.3133 26.3819L30.3656 27.4154C30.8014 26.0499 33.73 24.9502 33.73 24.9502C33.1028 24.8167 32.3363 25.0256 31.7184 25.2741C31.8736 24.7493 32.0952 24.2439 32.2111 24.0118L32.5304 23.3711L31.8504 23.1482C31.3432 22.9819 30.5198 23.006 29.7873 23.0781C30.088 22.8481 30.3535 22.7347 30.3572 22.7328L30.7281 22.5817L31.7107 22.1814C28.7073 21.6408 27.5912 19.4723 27.5912 19.4723C27.599 19.51 27.6753 19.8664 27.8573 20.3365C28.0697 20.8845 28.4264 21.588 28.9939 22.1301C28.7908 22.2899 28.5787 22.4889 28.3856 22.7263C28.1636 22.9986 27.9668 23.3219 27.84 23.704L27.5087 24.7029L28.2372 24.5641L28.5426 24.506C29.1731 24.3861 30.0877 24.2674 30.7575 24.2581Z" fill="#1A1919"/>
<path fill-rule="evenodd" clip-rule="evenodd" d="M35.4035 16.1201C35.5376 16.2719 35.6906 16.4762 35.6755 16.6926C35.6634 16.8663 35.5908 17.0026 35.4736 17.1012C35.4662 17.1117 35.4613 17.1225 35.4523 17.1327C35.3358 17.2687 35.1763 17.3234 35.0091 17.3386C34.9417 17.3627 34.8678 17.376 34.7884 17.3753C34.118 17.3689 33.6748 16.3742 34.1971 15.9072C34.5649 15.5783 35.1111 15.7888 35.4035 16.1201ZM33.2024 16.4875C33.6005 16.4674 33.6317 17.0846 33.2333 17.105C32.8352 17.1251 32.8043 16.5076 33.2024 16.4875ZM32.1404 16.4914C32.1169 16.5964 32.1058 16.7022 32.1108 16.8063C32.1108 16.8063 31.6969 16.7173 31.2623 16.5464C30.8284 16.3755 30.374 16.1229 30.2899 15.7953C30.2899 15.7953 31.5597 19.8638 35.2922 18.476C35.2922 18.476 34.5519 19.8298 32.5027 19.904C32.5027 19.904 34.5358 20.2396 35.9582 19.4264C36.2491 19.2601 36.5134 19.045 36.7306 18.7696C36.7325 18.7672 36.7344 18.7647 36.7362 18.7622C37.125 18.2652 37.3596 17.5741 37.304 16.6091C37.304 16.6091 37.1853 16.993 36.9359 17.337C36.8221 17.4937 36.6818 17.6421 36.5127 17.7419C36.5127 17.7419 36.4682 16.8412 36.0157 16.105C35.7539 15.6785 35.3561 15.3066 34.7491 15.1978C33.2865 14.936 32.3181 15.6955 32.1404 16.4914Z" fill="#1A1919"/>
<path fill-rule="evenodd" clip-rule="evenodd" d="M33.3072 14.247C30.1243 10.5575 28.127 14.5085 28.127 14.5085C31.0806 12.1765 33.3072 14.247 33.3072 14.247Z" fill="#1A1919"/>
<path fill-rule="evenodd" clip-rule="evenodd" d="M23.3757 12.915C23.8149 12.937 24.2841 13.0418 24.7567 13.2797C24.1661 11.2222 22.2537 10.1997 22.2537 10.1997C22.2537 10.1997 23.2227 11.5699 23.3773 12.9147L23.3757 12.915Z" fill="#A76521"/>
<path fill-rule="evenodd" clip-rule="evenodd" d="M23.8916 14.9376C24.0771 14.6539 24.2743 14.3902 24.4801 14.1467C23.8273 13.3381 22.5051 13.2689 21.8025 13.2948C21.8069 13.2979 22.2946 13.6391 22.476 14.2817C22.476 14.2817 21.3599 15.4324 20.0908 14.8866C20.2621 15.0588 20.641 15.3617 21.1068 15.2501L21.193 15.2291C22.1234 15.0053 23.144 14.7611 23.8916 14.9376Z" fill="#A76521"/>
<path fill-rule="evenodd" clip-rule="evenodd" d="M22.8267 9.29495C22.3906 9.48195 19.7467 10.7897 20.1284 14.7939C21.3975 15.3397 22.5136 14.189 22.5136 14.189C22.3325 13.5477 21.8463 13.2064 21.8404 13.2024C21.5588 13.2123 21.3758 13.2376 21.3758 13.2376C21.4222 13.207 21.4741 13.1764 21.5285 13.1458C21.5427 13.1381 21.5576 13.1304 21.5724 13.1224C21.6182 13.0982 21.6661 13.0741 21.7165 13.0506C21.7301 13.0445 21.743 13.0383 21.7566 13.0321C21.8929 12.9712 22.0447 12.915 22.2098 12.867C22.2107 12.867 22.2113 12.8667 22.2119 12.8664C22.5547 12.7678 22.9528 12.7094 23.3806 12.7304L23.3821 12.7301C23.2276 11.3853 22.2586 10.0151 22.2586 10.0151C24.297 10.3672 25.3229 11.8557 25.7874 12.833C25.8137 12.8123 25.8396 12.7941 25.8656 12.774C25.7988 12.1265 25.542 10.5603 24.5931 9.7592C24.1236 9.36326 23.5453 9.21057 22.8267 9.29495Z" fill="#D19627"/>
<path fill-rule="evenodd" clip-rule="evenodd" d="M33.0836 17.3083C33.4894 17.2882 33.4576 16.6709 33.0517 16.691C32.6459 16.7111 32.6774 17.3284 33.0836 17.3083Z" fill="#FFFFFE"/>
<path fill-rule="evenodd" clip-rule="evenodd" d="M34.2294 15.9286C33.7071 16.3956 34.1503 17.3902 34.8207 17.3964C34.9002 17.3973 34.974 17.3841 35.0414 17.3599C35.2086 17.3448 35.3681 17.2901 35.4849 17.1538C35.4936 17.1436 35.4985 17.1328 35.506 17.1226C35.6231 17.0237 35.6957 16.8877 35.7078 16.714C35.7229 16.4976 35.5699 16.2933 35.4358 16.1412C35.1434 15.8099 34.5972 15.5997 34.2294 15.9286Z" fill="#FFFFFE"/>
<path fill-rule="evenodd" clip-rule="evenodd" d="M41.3992 15.2784C40.8775 14.7458 40.1335 13.6928 40.1335 13.6928C39.8324 13.2171 39.6062 12.7352 39.5299 12.2843L39.1049 9.77171L38.3312 12.1999C38.3062 12.279 38.1946 12.6366 38.0892 13.0938C36.992 11.3681 35.5887 8.90905 35.5362 7.73607L35.5087 7.1176C36.9734 7.4817 38.4345 7.88722 39.8899 8.34219L39.898 8.3357C41.7593 8.92389 42.8791 9.46726 42.9956 9.52475C42.5385 11.5187 42.0028 13.439 41.3992 15.2784ZM43.0246 20.4413L42.9773 20.4617C43.1625 20.8951 42.7891 21.2799 42.4936 21.5027C42.4936 21.5027 40.8249 22.4763 37.9569 22.4457C37.9569 22.4457 37.9609 22.3682 37.9529 22.2464C37.9297 21.899 37.8042 21.185 37.1771 20.8354C37.1771 20.8354 37.5804 23.1047 36.4495 23.8802C36.4495 23.8802 36.6936 23.8372 36.9789 23.7068C37.2927 23.5631 37.6564 23.3133 37.8039 22.892C37.8039 22.892 40.2685 23.042 41.8795 22.6034C41.8989 22.8095 41.9212 23.1551 41.9181 23.6675C41.3936 24.3324 37.5847 26.1226 34.2584 27.4399L33.9382 27.5667C33.9382 27.5667 32.4827 31.2819 30.201 32.3989C29.9401 31.1867 29.2379 29.0286 27.4158 27.6878C26.7083 27.167 25.8324 26.7695 24.7475 26.5998C26.2061 26.8758 29.373 28.1236 29.1467 33.7737L29.5012 33.9187C29.5763 33.9499 31.3632 34.7081 32.3906 37.4938C32.5766 37.9983 32.6777 38.4121 32.7228 38.7518C32.7973 39.3079 32.7216 39.6649 32.6184 39.8871C32.474 40.1968 32.2521 40.283 32.2558 40.2827L31.8188 40.4073L31.807 40.861C31.7776 41.9842 30.2356 42.0872 30.1726 42.0909L29.8681 42.1063L29.6947 42.3573C29.4045 42.7783 29.0864 43.0027 28.7217 43.0435C28.3477 43.0846 27.9441 42.9248 27.6399 42.7474L28.8531 41.095L28.6933 40.7609C26.6277 36.443 22.0044 36.3209 20.1183 36.4652C20.1183 36.4652 19.7502 33.7276 20.8864 30.5246C20.8289 30.6152 19.7178 32.3868 19.1163 35.0824C18.9753 35.7129 18.8622 36.3935 18.7973 37.1158L18.7244 37.9349L19.5317 37.7779C19.727 37.7396 23.5242 37.041 26.1004 39.314C26.5251 39.4785 26.938 40.2265 26.938 40.2265C26.9389 40.2274 26.9395 40.2286 26.9402 40.2296C25.7551 41.5543 24.7571 42.561 24.0567 43.2354C24.0518 43.2292 24.0459 43.2237 24.0422 43.2166C23.7183 43.05 22.6256 42.2664 22.273 42.0117C20.5461 40.6122 18.6641 38.8665 16.7305 36.7072C17.012 34.386 18.1557 32.6137 19.1385 31.48C19.9505 30.5434 20.6528 30.0418 20.6679 30.0313L21.6477 29.3522L20.5282 28.9427C20.2757 28.8503 19.97 28.7996 19.6405 28.7776C19.0919 28.7415 18.478 28.786 17.9343 28.8531C18.9865 27.5518 20.3483 26.4654 21.1423 25.8831C21.5333 25.5962 21.7889 25.4296 21.7979 25.4241L23.7498 24.1695L21.9929 24.2582L20.5418 24.3315C21.4397 23.4431 22.1543 22.3295 22.6887 21.3148C22.6893 21.3188 22.6893 21.3228 22.6899 21.3272L22.8853 22.6562L23.7751 21.6393C23.7881 21.6242 24.0125 21.3741 24.5383 21.1488C24.4959 21.6294 24.4953 22.2309 24.6115 22.8488C24.7138 23.3921 24.9061 23.9479 25.2529 24.4455C24.5599 22.4284 26.1551 19.4912 26.1551 19.4912L25.1889 19.6732C24.6205 19.7802 24.1683 19.9465 23.8178 20.1211C23.7643 19.6646 23.7575 19.2238 23.7847 18.7976C23.8382 18.6431 23.87 18.5435 23.8781 18.5166L23.811 18.4956C24.0048 16.6692 24.8662 15.1448 25.7984 13.9901C27.0789 12.4036 28.493 11.5165 28.493 11.5165C28.4819 11.5196 28.2847 11.578 27.9722 11.7053C28.425 10.7846 28.9477 9.60572 29.3495 8.37062C29.6879 8.43367 30.0251 8.53969 30.3552 8.66827C32.1368 9.3634 33.6791 10.8112 33.6977 10.8291L34.82 11.8985L34.7421 10.3506C34.7334 10.184 34.7696 9.9621 34.832 9.71699C35.7902 12.0064 37.7285 14.8079 38.0088 15.2085L39.4467 17.2611L39.1286 14.7755C39.1156 14.6735 39.115 14.5489 39.1243 14.4104C39.7925 15.4499 40.7093 16.3738 41.3454 16.9545C41.1992 17.2488 41.0524 17.7365 40.9757 18.5543C40.9272 19.0739 41.0963 19.4535 41.3704 19.7329C41.801 20.1712 42.4927 20.3606 43.0246 20.4413ZM35.3186 28.7023L32.0819 34.3388C32.0819 34.3388 31.447 33.7274 31.0029 33.4075C31.9246 32.7155 34.2291 30.8066 35.0432 28.4761L35.046 28.4783C35.0476 28.4705 35.0497 28.4631 35.051 28.4554C35.2345 28.3818 35.4129 28.3101 35.5881 28.239C35.4976 28.396 35.4061 28.545 35.3152 28.6999L35.3186 28.7023ZM24.0344 43.2574L24.0224 43.2371C24.0224 43.2371 24.0325 43.2411 24.0458 43.2463C24.0421 43.25 24.0381 43.254 24.0344 43.2574ZM24.7225 13.2604C23.3285 12.5594 21.9559 12.9949 21.3368 13.4032C21.3368 13.4032 23.5659 13.0885 24.4786 14.2195C24.2728 14.463 24.0756 14.7267 23.8901 15.0104C23.1425 14.8339 22.1219 15.0781 21.1915 15.3019L21.1053 15.3229C20.6395 15.4345 20.2605 15.1316 20.0893 14.9594C19.7076 10.9552 22.3515 9.64748 22.7876 9.46048C23.5062 9.3761 24.0845 9.52879 24.554 9.92472C25.5029 10.7259 25.7598 12.292 25.8265 12.9395C25.8006 12.9596 25.7746 12.9779 25.7483 12.9986C25.2838 12.0212 24.2579 10.5327 22.2195 10.1806C22.2195 10.1806 24.1318 11.2031 24.7225 13.2604ZM13.5373 32.792C12.322 31.1576 11.1092 29.3488 9.92351 27.3503C12.6917 26.4224 14.1453 25.3867 14.8985 24.4878C15.9813 23.1959 15.6162 22.1864 15.6162 22.1864C15.5411 22.5106 15.4101 22.8095 15.2413 23.0855C14.7749 23.8487 14.0133 24.4307 13.2916 24.8467C13.3921 24.6106 13.4743 24.3781 13.5429 24.1562C13.8152 23.2772 13.8643 22.57 13.8677 22.514L13.92 21.6767L13.1049 21.8752C10.4731 22.5156 9.13442 23.81 8.47483 24.7815C7.91601 23.7408 7.36583 22.6565 6.82741 21.5222C6.89139 18.907 9.05282 16.0195 9.05282 16.0195C7.37263 17.2278 6.50318 18.7055 6.05531 19.8454C6.05006 19.8336 6.0448 19.8213 6.03955 19.8092C5.62198 18.8715 5.21244 17.9031 4.81248 16.9029C5.61209 16.1453 7.75528 14.2377 10.0076 13.2582C10.3556 13.107 10.7061 12.976 11.0548 12.8768L12.1607 12.5621L11.2881 11.8132C11.2458 11.777 10.5732 11.2111 9.43392 10.8961C10.7216 10.3293 12.5449 9.76273 14.3598 10.0054C14.3598 10.0054 11.6949 8.21916 4.91108 12.2255L7.36893 11.9541C8.19295 11.863 8.87695 11.9949 9.39467 12.1754C7.27991 13.1228 5.34102 14.7384 4.32876 15.6622C4.2484 15.4521 4.16959 15.2372 4.09015 15.0243C3.61045 13.7366 3.1459 12.4014 2.7002 11.0136C4.13682 8.97642 6.98844 8.73564 7.01626 8.73348L7.88232 8.67228L7.54139 7.87422C7.2218 7.12531 6.40211 6.48612 5.65845 6.03238C7.93764 5.57617 10.7036 5.88711 10.7376 5.89082L11.6281 5.99437L11.4084 5.12553C11.1976 4.29223 10.8304 3.64686 10.4573 3.16778C14.3796 3.22836 16.7954 4.73454 16.8211 4.75092L18.1276 5.59163L17.756 4.08329C17.4946 3.02159 16.9951 2.11349 16.546 1.45483C19.8489 1.98708 22.7097 4.85631 22.7419 4.88908L23.7035 5.86548L23.7996 4.49901C23.8611 3.62276 23.7405 2.88435 23.5591 2.29616C25.6461 3.59525 26.7745 6.11491 26.7878 6.1452L27.0141 6.66261L27.5497 6.48427C27.988 6.33838 28.3771 6.08616 28.7044 5.80799C28.5314 7.14138 27.9951 8.63859 27.4403 9.91325C27.2119 10.4378 26.9807 10.9255 26.7699 11.3471C26.5285 10.5311 26.1032 9.61622 25.3555 8.98353C24.5976 8.34156 23.6528 8.0946 22.5465 8.24481L22.4174 8.27696C22.3834 8.28963 19.6365 9.34423 18.9636 12.6663C17.8287 12.7899 14.9316 13.1886 12.5792 14.2142C12.4302 14.2791 12.2831 14.3462 12.139 14.4163L10.5268 15.2011L12.2806 15.5766C12.2951 15.5797 13.2802 15.7961 14.2946 16.3209C12.9318 16.519 11.1416 17.0763 10.1145 18.5927C13.6026 16.2922 17.6868 17.5758 17.6868 17.5758L16.5287 16.4099C15.8443 15.721 14.9672 15.2382 14.2093 14.9158C15.9572 14.3366 17.8262 14.051 18.8211 13.9292C18.8079 14.3539 18.8249 14.8064 18.8814 15.2907L18.9006 15.4548L18.9992 15.5877C19.0486 15.6545 19.1126 15.7265 19.1828 15.8001C19.5552 16.1892 20.2024 16.6223 21.0036 16.5818C21.1303 16.5753 21.2604 16.557 21.394 16.5249L21.4811 16.5039C21.4901 16.5017 21.5009 16.4992 21.5102 16.4971C21.321 17.012 21.0571 17.4719 20.7721 17.8725C19.9796 18.9861 19.0202 19.6293 19.0202 19.6293C20.0006 19.5332 20.7467 19.145 21.3133 18.6511C22.2198 17.8611 22.6643 16.7997 22.851 16.2192C23.0003 16.197 23.1406 16.1818 23.2642 16.1759C23.0065 16.7715 22.8059 17.4358 22.6893 18.1776C22.6251 18.3754 22.1973 19.6535 21.4363 21.0338C20.6818 22.4034 19.5997 23.8737 18.2194 24.4906L15.203 25.8389L17.0822 25.744L19.4545 25.6244C19.1098 25.9065 18.7365 26.2342 18.3597 26.5912C17.5168 27.3902 16.6563 28.353 16.0548 29.4045L15.3563 30.6257L16.4291 30.3821L16.7286 30.3141C17.2717 30.1908 18.0837 30.0566 18.8048 30.0131C18.5637 30.2523 18.3003 30.536 18.0308 30.8587C17.1218 31.9482 16.1404 33.5063 15.6852 35.5064C14.9718 34.6605 14.2541 33.7564 13.5373 32.792ZM9.17188 26.0506C9.41512 25.4899 10.2116 24.1469 12.4812 23.3467C12.3063 24.0869 11.9373 25.1174 11.1766 25.8021L9.76192 27.0761C9.56441 26.7395 9.36784 26.398 9.17188 26.0506ZM1.5 6.99364C1.96208 6.85795 2.70821 6.65364 3.70532 6.42554L3.78352 6.45768C4.37233 6.70031 5.25693 7.1726 5.84635 7.68166C4.8613 7.91564 3.395 8.44232 2.26035 9.60602C2.00041 8.75171 1.7451 7.88535 1.5 6.99364ZM29.9241 5.95051C31.5035 6.21756 33.0798 6.53808 34.6521 6.90929L34.3647 7.48882C34.3032 7.61338 33.9258 8.38981 33.6921 9.2061C32.7896 8.50448 31.2853 7.50582 29.6926 7.17417C29.7924 6.76216 29.8715 6.35232 29.9241 5.95051ZM44.7277 8.64109L44.7274 8.6414C43.7442 8.2263 41.8585 7.63595 40.122 7.12286C38.9086 6.74609 37.6914 6.39961 36.4711 6.08496C36.3877 6.06208 36.3394 6.0491 36.3394 6.0491L36.3441 6.05281C36.0464 5.97678 35.7488 5.89982 35.4508 5.82718L35.4292 5.34068L35.2153 5.77247C33.477 5.35552 31.7331 5.001 29.9859 4.70922C29.9772 4.48111 29.9605 4.25703 29.9244 4.04283L29.6391 2.35646L28.7801 3.83575C28.7767 3.84162 28.6046 4.12659 28.3227 4.4499C27.9397 4.39457 27.5568 4.34574 27.1738 4.29659C26.3167 2.95887 24.7225 1.03636 22.3836 0.465173L20.4664 0L21.7775 1.47959C21.8044 1.50988 22.2569 2.03223 22.4699 3.00307C20.9659 1.80166 18.1751 -0.00896347 15.1637 0.143106L13.7642 0.213578L14.76 1.19956C14.7696 1.20945 15.4713 1.912 16.0282 2.99658C14.5789 2.41674 12.1093 1.73768 8.89423 1.98L6.87189 2.13485L8.63676 3.13443C8.6448 3.13907 9.1755 3.46175 9.64376 4.15998C4.03511 4.8174 0.716768 5.9366 0.546153 5.99532L0 6.18294L0.149906 6.74053C5.57497 26.9154 14.8729 37.6778 21.7176 43.1538C21.903 43.3022 22.0866 43.4447 22.2696 43.5856C22.2711 43.5872 22.2724 43.5887 22.2739 43.59C23.0058 44.2427 24.4363 45 24.4363 45L24.7327 44.7224C24.7333 44.7227 24.7339 44.7227 24.7342 44.7231C24.7812 44.6792 24.835 44.6276 24.8854 44.5796L24.9376 44.5311L24.9373 44.5305C25.2924 44.1921 25.7335 43.7596 26.2466 43.2336L26.3529 43.3331C26.394 43.3714 26.551 43.5127 26.7912 43.6749C27.6291 44.1463 27.9799 44.2121 27.9799 44.2121C28.2111 44.2668 28.4575 44.2968 28.7143 44.2838C28.7594 44.2817 28.8049 44.2783 28.8506 44.273C29.5016 44.2029 30.0672 43.8746 30.5361 43.296C31.4423 43.1659 32.7633 42.6287 33.0053 41.2734C33.2304 41.1253 33.502 40.8793 33.7045 40.4806C34.0389 39.8222 34.0735 38.9682 33.8185 37.9386L33.829 37.9275C33.6584 37.2012 33.21 36.2615 33.0366 35.9135C32.9478 35.7448 32.8567 35.5865 32.7643 35.4332C34.458 33.0913 36.2238 30.3593 37.9 27.2632C38.2558 27.1061 38.5905 26.9553 38.8999 26.8116C40.4231 26.0843 42.3799 24.8721 42.3799 24.8721V24.8724C43.1458 24.278 43.152 23.9618 43.1538 23.781C43.1603 23.2416 43.1412 22.8473 43.1192 22.5799C43.7655 22.1293 44.4841 21.2975 44.2091 20.2562C45.5598 19.1923 44.7036 16.2965 44.7036 16.2965C44.4313 16.4158 43.4496 16.469 42.6942 16.4925C42.6769 16.4782 42.6556 16.4594 42.6374 16.4443C43.3013 14.4936 43.8932 12.4533 44.3967 10.3287L44.4081 10.3355C44.4041 10.3318 44.4016 10.3281 44.3976 10.3244C44.5172 9.82025 44.6374 9.31737 44.7466 8.80398L44.7481 8.80459L44.7821 8.66427L44.7277 8.64109Z" fill="#1A1919"/>
</svg>
