<svg width="130" height="42" viewBox="0 0 130 42" fill="none" xmlns="http://www.w3.org/2000/svg">
<path fill-rule="evenodd" clip-rule="evenodd" d="M69.3262 15.8523C69.8246 15.8599 70.3251 15.8752 70.834 15.91C70.3265 15.8766 69.8239 15.8586 69.3262 15.8523Z" fill="#1D1D1B"/>
<path fill-rule="evenodd" clip-rule="evenodd" d="M71.4161 15.9616C71.8013 15.995 72.1843 16.0241 72.5743 16.0728C72.185 16.0255 71.8006 15.9943 71.4161 15.9616Z" fill="#1D1D1B"/>
<path fill-rule="evenodd" clip-rule="evenodd" d="M18.557 0C18.557 0 19.7555 1.3806 18.4854 4.45949C17.2154 7.53769 13.8473 12.6006 16.1205 14.3044C16.1205 14.3044 16.2915 12.4052 18.5494 9.24919C20.8066 6.09314 24.5653 0.0966282 18.557 0Z" fill="#1D1D1B"/>
<path fill-rule="evenodd" clip-rule="evenodd" d="M25.3838 19.3498C24.9647 19.3505 24.5719 19.233 24.2785 18.9014C23.6306 18.1715 23.6946 16.7304 24.1617 15.8434C24.3321 15.5188 24.6977 14.9967 25.2851 15.0057C25.3199 15.0064 25.3553 15.0085 25.3922 15.0134C25.9198 15.078 26.0887 15.3179 26.177 15.5195C26.4885 16.2327 26.1569 17.6863 25.3838 19.3498ZM29.6782 17.7982C28.5492 18.5886 27.0623 18.9758 26.7453 19.0523C27.348 17.5688 27.6559 16.0888 27.2089 15.0683C27.006 14.6018 26.5485 14.02 25.5294 13.8956C24.5618 13.776 23.7018 14.2953 23.1645 15.3193C22.5117 16.5615 22.4345 18.5205 23.4356 19.6488C23.6914 19.9373 24.1384 20.2987 24.8363 20.428C24.4533 21.1239 24.0063 21.8358 23.5072 22.5288C22.048 24.5552 20.73 24.8131 20.0953 24.7965C19.5343 24.2007 19.8527 22.0367 20.2058 20.0742C20.6188 17.7801 23.2548 14.419 23.2548 14.419C18.6348 14.3446 17.0289 19.0843 16.9803 22.1354C16.9427 24.4663 18.2809 25.4471 19.3244 25.7878L19.3181 25.8038C19.3417 25.8121 19.4912 25.8615 19.7283 25.8934C19.8895 25.9247 20.0369 25.94 20.1586 25.9421C20.2621 25.9442 20.3442 25.931 20.4116 25.9101C21.3883 25.8337 22.894 25.3081 24.4213 23.1872C24.9497 22.4531 25.5781 21.4638 26.1224 20.4009C26.3831 20.3495 26.6639 20.2709 26.9656 20.1583C27.2646 20.0888 28.974 19.6668 30.324 18.7214L29.6782 17.7982Z" fill="#1D1D1B"/>
<path fill-rule="evenodd" clip-rule="evenodd" d="M35.4284 19.5162C35.0217 19.5203 34.6171 19.3994 34.323 19.0671C33.6758 18.3379 33.7398 16.8961 34.2063 16.0091C34.3773 15.6844 34.7429 15.1623 35.3296 15.1721C35.3644 15.1728 35.3999 15.1749 35.4367 15.1797C35.9643 15.2444 36.134 15.4842 36.2222 15.6858C36.5337 16.399 36.2021 17.8526 35.4284 19.5162ZM39.7224 17.9646C38.5941 18.7543 37.1072 19.1422 36.7895 19.2186C37.3922 17.7345 37.7009 16.2552 37.2539 15.2346C37.0502 14.7682 36.5935 14.1863 35.5743 14.0619C34.6053 13.9389 33.7468 14.4616 33.2094 15.4849C32.5559 16.7272 32.4795 18.6861 33.4805 19.8151C33.7363 20.1036 34.1826 20.4651 34.8806 20.5944C34.4982 21.2902 34.0505 22.0021 33.5514 22.6952C32.0936 24.7216 30.7749 24.9795 30.1402 24.9635C29.5785 24.3677 29.8976 22.203 30.2508 20.2405C30.6637 17.9465 33.2991 14.5854 33.2991 14.5854C28.679 14.511 27.0738 19.2506 27.0252 22.301C26.9876 24.6319 28.3251 25.6128 29.3686 25.9534L29.363 25.9694C29.386 25.9784 29.5347 26.0264 29.769 26.0591C29.9324 26.0904 30.0811 26.1064 30.2035 26.1084C30.3078 26.1098 30.3898 26.0973 30.4572 26.0765C31.4339 25.9993 32.9397 25.4738 34.4663 23.3535C34.9939 22.6194 35.623 21.6302 36.1673 20.5673C36.4273 20.5158 36.7082 20.4366 37.0099 20.3247C37.3095 20.2551 39.0182 19.8332 40.3682 18.8877L39.7224 17.9646Z" fill="#1D1D1B"/>
<mask id="mask0_0_678" style="mask-type:luminance" maskUnits="userSpaceOnUse" x="0" y="2" width="19" height="29">
<path fill-rule="evenodd" clip-rule="evenodd" d="M0 2.26632V30.3823H18.8022V2.26632L0 2.26632L0 2.26632Z" fill="white"/>
</mask>
<g mask="url(#mask0_0_678)">
<path fill-rule="evenodd" clip-rule="evenodd" d="M18.691 23.7618C18.5346 23.4261 18.4248 23.0889 18.3511 22.7538C16.8627 24.334 14.9177 26.3632 13.5329 27.6784C12.9545 28.2283 12.431 28.587 11.9701 28.822C10.1801 24.783 16.6834 17.2009 16.6834 17.2009C12.6876 17.1362 10.3935 20.0107 9.15542 22.7413C7.67193 23.7667 5.96043 24.6419 4.88014 24.1942C2.6417 23.2662 4.11476 13.4303 7.57044 8.74346C11.0261 4.05734 13.0991 3.62147 14.3643 3.78275C15.6295 3.94403 17.8241 4.65101 16.8328 7.93776L18.1335 5.86199C18.1335 5.86199 17.7943 2.33541 13.5433 2.26729C9.29236 2.19847 3.53291 5.81472 0.869029 13.8008C-1.79485 21.7862 2.34834 25.6562 4.1523 25.6847C5.04489 25.6993 6.74527 25.5978 8.35945 24.8991C8.02507 26.0462 7.88743 26.9721 7.88187 27.3413C7.85962 28.7024 8.74527 30.3597 10.1328 30.3819C10.333 30.3854 10.5179 30.3652 10.6945 30.3346C11.5829 30.2832 12.8419 29.8897 14.3094 28.4952C15.5968 27.2717 17.3612 25.4414 18.8022 23.9176C18.7584 23.8765 18.7202 23.8251 18.691 23.7618Z" fill="#1D1D1B"/>
</g>
<path fill-rule="evenodd" clip-rule="evenodd" d="M60.4787 30.3132C59.8044 30.3209 59.1322 30.2298 58.5184 30.0352L58.4461 30.0115C58.3578 29.9837 58.2702 29.9559 58.1923 29.9274C57.7808 29.7661 57.395 29.5583 57.0467 29.308C56.6602 29.03 56.3098 28.7477 56.0047 28.4738C55.1739 27.4624 54.9549 26.1096 55.3533 24.453C55.9289 22.0616 58.0102 19.4165 60.3835 18.0359C61.673 17.493 63.071 17.0801 64.5399 16.8062C65.86 18.843 66.1812 21.5945 66.1596 22.9264C66.1221 25.2649 64.6414 30.3716 60.4787 30.3132ZM75.1419 15.9163C72.3028 15.3484 69.5507 15.1544 66.9688 15.3394C66.1603 14.738 65.3567 14.2083 64.6449 13.7391C62.485 12.3147 60.9243 11.2851 60.9515 9.60284C60.9904 7.1642 63.3442 4.81662 65.1072 4.84512C65.9859 4.87501 66.7304 5.24206 67.2017 5.87814C67.2886 5.99562 67.3609 6.12423 67.4269 6.257C67.9087 7.00917 67.997 7.94695 67.7995 8.87917C66.6059 11.3998 65.6397 13.9977 67.144 15.1245C67.144 15.1245 67.3157 13.226 69.5729 10.07C71.8308 6.91324 75.5889 0.917429 69.5806 0.820801C69.5806 0.820801 70.779 2.2014 69.509 5.2796C69.3261 5.72381 69.0981 6.20973 68.8513 6.72068C68.8513 6.7179 69.0112 3.15865 64.3314 3.08357C63.7446 3.07453 63.1962 3.1371 62.6845 3.25875C61.6967 3.43741 60.736 3.81349 59.9108 4.35781C59.6835 4.54689 59.4735 4.73737 59.2956 4.92298C57.7586 6.53229 57.1399 8.58442 57.2163 9.8107C57.3672 12.2459 59.3004 13.5493 62.371 14.8632C62.8527 15.0689 63.3032 15.379 63.7175 15.787C63.5799 15.8148 63.4443 15.8434 63.3115 15.8739C56.9515 17.3407 53.7711 21.021 53.297 22.4745C52.6157 24.5594 52.3522 27.324 56.3898 30.2236C56.4204 30.2458 56.4537 30.2625 56.485 30.284C57.461 30.7568 58.4356 31.0397 59.4749 31.2267C61.1385 31.3358 62.7436 31.1655 64.3126 30.599C64.3251 30.5934 64.3411 30.5871 64.3529 30.5816C67.4005 29.5847 69.2378 28.2987 69.8141 26.7582C71.0175 23.5444 70.9514 19.2052 68.2389 16.4203C70.3856 16.3592 72.6226 16.5615 74.9215 17.0203L75.1975 17.0759L75.4179 15.9713L75.1419 15.9163Z" fill="#1D1D1B"/>
<path fill-rule="evenodd" clip-rule="evenodd" d="M86.0903 21.9384C84.1382 26.156 81.9756 25.9182 81.4452 25.7834C80.757 25.3315 81.0899 23.0458 81.4612 20.9826C81.8741 18.6885 84.5102 15.3267 84.5102 15.3267C79.8894 15.2523 78.2843 19.992 78.2356 23.043C78.2272 23.5297 78.2801 23.9565 78.3767 24.3319C76.9461 25.9579 75.6628 25.807 75.2714 25.7076C74.5825 25.2564 74.9162 22.97 75.2867 20.9068C75.6996 18.6127 78.3364 15.2509 78.3364 15.2509C73.7156 15.1765 72.1105 19.9162 72.0611 22.9673C72.0201 25.5442 73.6586 26.4709 74.7222 26.7066L74.7201 26.7121C74.766 26.7316 75.14 26.8804 75.7149 26.8901C76.5018 26.9026 77.6656 26.6482 78.8786 25.4434C79.4438 26.2603 80.269 26.6433 80.8967 26.7816L80.8939 26.7879C80.9398 26.8067 81.3138 26.9561 81.8894 26.9652C83.124 26.9853 85.2853 26.359 87.1129 22.4118L86.0903 21.9384Z" fill="#1D1D1B"/>
<path fill-rule="evenodd" clip-rule="evenodd" d="M108.132 23.6478C106.391 26.4869 104.656 26.2915 104.189 26.1727C103.501 25.7215 103.834 23.4358 104.206 21.3719C104.618 19.0778 107.254 15.7167 107.254 15.7167C102.633 15.6423 101.029 20.3819 100.979 23.4323C100.938 26.0093 102.576 26.936 103.641 27.1716L103.638 27.1772C103.684 27.1967 104.058 27.3454 104.633 27.3552C105.57 27.3698 107.039 27.0097 108.492 25.1146C108.204 24.7045 108.102 24.181 108.132 23.6478Z" fill="#1D1D1B"/>
<path fill-rule="evenodd" clip-rule="evenodd" d="M119.504 22.4958C118.796 23.5531 117.723 24.8357 116.754 25.606C116.27 26.0217 115.996 25.8583 115.979 24.8072C115.962 23.7527 117.764 18.6501 117.679 17.3488C117.594 16.0474 116.121 15.9758 116.121 15.9758L116.122 15.9772C115.565 15.9334 114.838 16.2615 113.915 16.9762C113.009 17.6776 111.169 20.5007 109.758 22.7906C110.669 19.2014 112.223 15.85 112.223 15.85C108.562 15.7909 107.169 19.1493 107.178 23.0227C107.185 26.8962 109.114 27.3738 109.114 27.3738C109.105 26.9171 109.128 26.4374 109.176 25.9445C110.366 23.9146 111.981 21.2932 113.204 19.5678C113.697 18.9025 114.047 18.582 114.536 18.2824C115.235 17.8542 115.013 19.2389 114.494 20.8823C113.976 22.5257 113.919 24.9782 113.919 24.9782L113.922 24.972C113.849 25.7318 113.903 26.3498 114.145 26.7718C114.327 27.0909 114.607 27.2994 114.955 27.3738C115.069 27.3988 115.185 27.412 115.301 27.4134C117.433 27.4475 119.938 23.8743 120.441 23.1221L119.504 22.4958Z" fill="#1D1D1B"/>
<path fill-rule="evenodd" clip-rule="evenodd" d="M48.0674 9.4121C49.6587 5.83199 51.3243 4.15873 51.7636 4.03638C52.4539 5.17993 49.4306 13.7687 45.8359 19.3864C45.8846 14.8608 47.3584 11.0061 48.0674 9.4121ZM52.2915 3.03337C52.1983 2.98332 52.0975 2.94648 51.9891 2.92701C51.9515 2.91658 51.9244 2.91033 51.9244 2.91033C50.6251 2.75391 48.9616 5.35175 48.3047 6.47306C46.0523 10.3152 44.3436 15.6305 44.7169 21.0076C41.6158 25.196 40.2602 25.0389 40.1532 25.0194C40.1045 24.9972 40.0544 24.9902 40.0037 24.9826C39.5776 24.3972 39.759 22.7351 40.0392 21.0604C41.6227 15.5415 44.8219 15.2947 44.8219 15.2947C43.9627 14.4487 42.6558 14.5794 41.727 14.8276C41.6137 14.8554 41.506 14.8901 41.3975 14.9242C41.3064 14.9541 41.2216 14.9826 41.1438 15.0111C41.0402 15.05 40.9359 15.0869 40.8372 15.1314C40.703 15.1877 40.6217 15.2273 40.6217 15.2273L40.6203 15.2412C37.9787 16.5822 36.9804 19.992 36.9422 22.3785C36.8928 25.4303 39.2022 26.1713 40.1205 26.1859C40.2102 26.1873 40.2811 26.1769 40.3436 26.1609C40.9137 26.1289 41.8014 25.7945 43.0673 24.6211L43.0562 24.6364C43.5602 24.2339 44.2102 23.6312 44.9401 22.8866C45.3836 25.5964 46.3965 28.2797 48.1872 30.7566C48.2956 30.9061 48.4639 30.9874 48.6356 30.9902C48.7524 30.9916 48.8712 30.9575 48.9741 30.8831C49.2258 30.701 49.2828 30.3493 49.1006 30.0969C47.157 27.4087 46.2581 24.5439 45.9592 21.8105C49.2209 18.2568 53.4114 12.6614 54.2039 8.78935C55.0513 4.64477 53.1278 3.38095 52.2915 3.03337Z" fill="#1D1D1B"/>
<path fill-rule="evenodd" clip-rule="evenodd" d="M97.0456 19.669C97.1951 15.3694 98.584 11.7469 99.2653 10.2147C100.898 6.54214 102.608 4.87652 102.972 4.8223C102.973 4.823 103.093 4.94256 103.116 5.45629C103.234 8.13338 100.594 15.2637 97.0991 19.6113C97.0811 19.6321 97.0637 19.6488 97.0456 19.669ZM103.176 3.70934L103.179 3.72185C103.16 3.71907 103.14 3.7149 103.123 3.71282C101.818 3.56613 100.161 6.15424 99.503 7.27554C97.4036 10.8557 95.7811 15.7156 95.8715 20.7124C94.6904 21.5084 93.6685 21.45 92.7251 21.3923C91.9118 21.0371 94.2691 17.9206 94.29 16.6533C94.306 15.6433 93.2159 15.45 92.771 15.4125C92.7106 15.4055 92.6508 15.4034 92.5896 15.4034H92.5847C92.176 15.4076 91.7769 15.5585 91.592 15.6308C90.2524 16.1556 88.9288 18.0562 87.8583 20.043C88.7001 17.482 89.6254 15.4862 89.6254 15.4862C85.964 15.4278 84.5722 18.7854 84.5799 22.6596C84.5882 26.5331 86.5173 27.0099 86.5173 27.0099C86.5076 26.5866 86.527 26.1431 86.5681 25.6884L86.5778 25.6919C87.3168 23.6488 89.5135 18.4851 91.4683 17.003C92.3101 16.7861 91.9952 16.6978 91.047 19.0308C90.0912 21.3812 91.6761 22.2571 91.6761 22.2571L91.6775 22.2564C91.8638 22.385 92.1113 22.4844 92.4464 22.5039L92.6549 22.5164C93.5733 22.5748 94.6779 22.638 95.9299 21.9887C96.1857 25.2678 97.2208 28.5643 99.3862 31.5591C99.494 31.7086 99.6622 31.7892 99.8339 31.792C99.9514 31.7941 100.07 31.7593 100.172 31.6856C100.425 31.5028 100.481 31.151 100.299 30.8987C98.0626 27.8052 97.1985 24.4767 97.0546 21.3853C97.1582 21.2755 97.2604 21.1573 97.3633 21.0405L97.3265 21.0996C98.4359 20.4872 99.4641 19.6836 100.274 18.7215C100.701 18.2147 101.087 17.6683 101.539 17.1831C101.605 17.1122 101.673 17.0426 101.742 16.9738C103.532 14.4093 105.016 11.7336 105.454 9.58836C106.525 4.35932 103.176 3.70934 103.176 3.70934Z" fill="#1D1D1B"/>
<path fill-rule="evenodd" clip-rule="evenodd" d="M125.5 23.5444C125.402 23.4714 125.334 23.3748 125.287 23.2712C125.11 23.5437 124.924 23.8155 124.731 24.0845C123.273 26.1088 121.955 26.3695 121.32 26.3535C120.757 25.7585 121.076 23.593 121.429 21.6299C121.842 19.3358 124.478 15.974 124.478 15.974C119.858 15.8996 118.253 20.64 118.204 23.6904C118.167 25.9726 119.449 26.9618 120.482 27.3226C120.504 27.333 120.519 27.3504 120.542 27.3588C120.565 27.3678 120.713 27.4158 120.948 27.4477C121.111 27.4797 121.259 27.4957 121.382 27.4978C121.486 27.4992 121.569 27.4867 121.636 27.4651C122.613 27.3886 124.119 26.8624 125.645 24.7428C125.733 24.6205 125.824 24.4898 125.917 24.3542C125.871 24.0386 125.756 23.7355 125.5 23.5444Z" fill="#1D1D1B"/>
<path fill-rule="evenodd" clip-rule="evenodd" d="M110.001 3.75918C110.001 3.75918 110.734 5.04038 109.247 7.27951C107.759 9.51933 104.299 13.0021 105.833 14.7074C105.833 14.7074 106.266 13.2301 108.548 11.0835C110.83 8.93679 114.745 4.77552 110.001 3.75918Z" fill="#1D1D1B"/>
<path fill-rule="evenodd" clip-rule="evenodd" d="M89.7294 27.7743C89.7294 27.7743 90.1166 26.3499 92.752 25.8188C95.3874 25.287 100.297 25.2703 100.418 22.9805C100.418 22.9805 99.0676 23.7187 95.9359 23.6228C92.8048 23.5276 87.094 23.7021 89.7294 27.7743Z" fill="#1D1D1B"/>
<path fill-rule="evenodd" clip-rule="evenodd" d="M115.884 40.1128C114.47 40.0752 114.356 39.5031 114.319 39.3147C113.936 37.3891 117.856 32.7315 122.538 29.6901C121.265 34.5403 119.446 39.38 115.884 40.1128ZM128.16 16.0914C128.134 16.0935 128.107 16.0962 128.081 16.099C128.051 16.1018 128.024 16.1032 127.993 16.1067V16.1087C127.382 16.1859 126.796 16.4598 126.456 17.1348C125.515 19.0083 124.675 20.7128 123.34 26.4139C123.208 26.9763 123.072 27.5526 122.931 28.1344C117.905 31.1383 112.641 36.6565 113.214 39.5338C113.362 40.2846 113.941 41.189 115.854 41.2397H115.895C120.15 41.3085 123.232 34.3701 125.266 28.1852L125.688 26.8609C125.693 26.847 125.697 26.8338 125.701 26.8206C125.703 26.783 125.695 26.7483 125.705 26.7073C125.997 25.4761 126.316 24.3444 126.7 23.1445C126.992 22.2325 127.128 21.3211 127.551 20.4793C127.59 20.35 127.626 20.2193 127.67 20.0934C127.661 20.1053 127.652 20.1164 127.643 20.1289C128.586 17.164 129.628 16.6392 129.715 16.6009L129.976 16.5307C129.976 16.5307 129.736 15.9475 128.16 16.0914Z" fill="#1D1D1B"/>
<path fill-rule="evenodd" clip-rule="evenodd" d="M122.859 16.167C122.859 16.167 125.578 15.3286 126.221 16.7579C126.221 16.7579 122.741 16.4249 121.429 21.6296L120.729 19.1076L122.859 16.167Z" fill="#1D1D1B"/>
</svg>
