<svg width="31" height="24" viewBox="0 0 31 24" fill="none" xmlns="http://www.w3.org/2000/svg">
<path d="M30.1666 4.01215C30.1666 3.98166 30.1819 3.95117 30.1819 3.92069L21.5789 12.1676L30.1666 20.1554C30.1666 20.0944 30.1513 20.0335 30.1513 19.9877V4.01215H30.1666Z" fill="#DFE6EB"/>
<path d="M20.2774 13.4482L16.7566 16.8019C16.5729 16.9695 16.3433 17.061 16.1137 17.061C15.8841 17.061 15.6698 16.9848 15.4861 16.8171L11.9959 13.5702L3.34692 21.8628C3.56123 21.939 3.77554 22 4.02047 22H28.2222C28.5743 22 28.8957 21.8933 29.1866 21.7409L20.2774 13.4482Z" fill="#DFE6EB"/>
<path d="M16.1139 14.8811L29.248 2.28963C28.9419 2.12195 28.6051 2 28.2224 2H4.02067C3.53082 2 3.1022 2.18293 2.75012 2.47256L16.1139 14.8811Z" fill="#DFE6EB"/>
<path d="M2 4.31712V19.9878C2 20.1708 2.04592 20.3384 2.09185 20.5061L10.6336 12.3202L2 4.31712Z" fill="#DFE6EB"/>
</svg>
